{
  "accessors": [
    {
      "bufferView": 2,
      "componentType": 5126,
      "count": 20364,
      "max": [
        352.3966064453125,
        3.9328179359436035,
        113.52511596679688
      ],
      "min": [
        262.4825744628906,
        -97.26737976074219,
        -125.74256134033203
      ],
      "type": "VEC3"
    },
    {
      "bufferView": 2,
      "byteOffset": 244368,
      "componentType": 5126,
      "count": 20364,
      "max": [
        1.0,
        1.0,
        1.0
      ],
      "min": [
        -1.0,
        -1.0,
        -1.0
      ],
      "type": "VEC3"
    },
    {
      "bufferView": 1,
      "componentType": 5126,
      "count": 20364,
      "max": [
        0.9976959824562073,
        0.993632972240448
      ],
      "min": [
        0.004883000161498785,
        0.02579599991440773
      ],
      "type": "VEC2"
    },
    {
      "bufferView": 0,
      "componentType": 5125,
      "count": 94524,
      "type": "SCALAR"
    },
    {
      "bufferView": 2,
      "byteOffset": 488736,
      "componentType": 5126,
      "count": 22716,
      "max": [
        352.6576232910156,
        4.232818126678467,
        113.82511901855469
      ],
      "min": [
        262.2215881347656,
        -97.53369903564453,
        -126.04255676269531
      ],
      "type": "VEC3"
    },
    {
      "bufferView": 2,
      "byteOffset": 761328,
      "componentType": 5126,
      "count": 22716,
      "max": [
        1.0,
        1.0,
        1.0
      ],
      "min": [
        -1.0,
        -1.0,
        -1.0
      ],
      "type": "VEC3"
    },
    {
      "bufferView": 1,
      "byteOffset": 162912,
      "componentType": 5126,
      "count": 22716,
      "max": [
        0.301488995552063,
        0.9963759779930115
      ],
      "min": [
        0.2972069978713989,
        0.9922009706497192
      ],
      "type": "VEC2"
    },
    {
      "bufferView": 0,
      "byteOffset": 378096,
      "componentType": 5125,
      "count": 94416,
      "type": "SCALAR"
    },
    {
      "bufferView": 2,
      "byteOffset": 1033920,
      "componentType": 5126,
      "count": 54,
      "max": [
        318.1271057128906,
        -27.266386032104492,
        46.97562789916992
      ],
      "min": [
        297.2991638183594,
        -92.20002746582031,
        -54.74077606201172
      ],
      "type": "VEC3"
    },
    {
      "bufferView": 2,
      "byteOffset": 1034568,
      "componentType": 5126,
      "count": 54,
      "max": [
        0.14671503007411957,
        0.9990566372871399,
        0.00877700187265873
      ],
      "min": [
        -0.14671503007411957,
        -1.0,
        -0.9981389045715332
      ],
      "type": "VEC3"
    },
    {
      "bufferView": 1,
      "byteOffset": 344640,
      "componentType": 5126,
      "count": 54,
      "max": [
        0.2982949912548065,
        0.9942169785499573
      ],
      "min": [
        0.2972069978713989,
        0.9925240278244019
      ],
      "type": "VEC2"
    },
    {
      "bufferView": 0,
      "byteOffset": 755760,
      "componentType": 5125,
      "count": 120,
      "type": "SCALAR"
    }
  ],
  "asset": {
    "extras": {
      "author": "daCruz (https://sketchfab.com/daCruz)",
      "license": "CC-BY-NC-4.0 (http://creativecommons.org/licenses/by-nc/4.0/)",
      "source": "https://sketchfab.com/3d-models/cyberpunk-bike-efcf679a115c487face1adc2ce7e8b8c",
      "title": "Cyberpunk bike"
    },
    "generator": "Sketchfab-12.68.0",
    "version": "2.0"
  },
  "bufferViews": [
    {
      "buffer": 0,
      "byteLength": 756240,
      "name": "floatBufferViews",
      "target": 34963
    },
    {
      "buffer": 0,
      "byteLength": 345072,
      "byteOffset": 756240,
      "byteStride": 8,
      "name": "floatBufferViews",
      "target": 34962
    },
    {
      "buffer": 0,
      "byteLength": 1035216,
      "byteOffset": 1101312,
      "byteStride": 12,
      "name": "floatBufferViews",
      "target": 34962
    }
  ],
  "buffers": [
    {
      "byteLength": 2136528,
      "uri": "scene.bin"
    }
  ],
  "extensionsUsed": [
    "KHR_materials_unlit"
  ],
  "images": [
    {
      "uri": "textures/initialShadingGroup_baseColor.png"
    },
    {
      "uri": "textures/lambert3SG_baseColor.png"
    }
  ],
  "materials": [
    {
      "extensions": {
        "KHR_materials_unlit": {}
      },
      "name": "initialShadingGroup",
      "pbrMetallicRoughness": {
        "baseColorTexture": {
          "index": 0
        },
        "metallicFactor": 0.0
      }
    },
    {
      "emissiveFactor": [
        1.0,
        1.0,
        1.0
      ],
      "emissiveTexture": {
        "index": 0
      },
      "extensions": {
        "KHR_materials_unlit": {}
      },
      "name": "lambert3SG",
      "pbrMetallicRoughness": {
        "baseColorTexture": {
          "index": 1
        },
        "metallicFactor": 0.0
      }
    }
  ],
  "meshes": [
    {
      "name": "Object_0",
      "primitives": [
        {
          "attributes": {
            "NORMAL": 1,
            "POSITION": 0,
            "TEXCOORD_0": 2
          },
          "indices": 3,
          "material": 1,
          "mode": 4
        }
      ]
    },
    {
      "name": "Object_1",
      "primitives": [
        {
          "attributes": {
            "NORMAL": 5,
            "POSITION": 4,
            "TEXCOORD_0": 6
          },
          "indices": 7,
          "material": 0,
          "mode": 4
        }
      ]
    },
    {
      "name": "Object_2",
      "primitives": [
        {
          "attributes": {
            "NORMAL": 9,
            "POSITION": 8,
            "TEXCOORD_0": 10
          },
          "indices": 11,
          "material": 0,
          "mode": 4
        }
      ]
    }
  ],
  "nodes": [
    {
      "children": [
        1
      ],
      "matrix": [
        -0.01217042747474939,
        -5.9337931700922594e-05,
        -1.3175667601599848e-20,
        0.0,
        5.9337931700922594e-05,
        -0.01217042747474939,
        -2.7023777603994748e-18,
        0.0,
        0.0,
        -2.7024098145587046e-18,
        0.012170571833848953,
        0.0,
        615.1036987304688,
        -51.260219573974624,
        52.759708404541,
        1.0
      ],
      "name": "Sketchfab_model"
    },
    {
      "children": [
        2,
        3,
        4
      ],
      "name": "neo tokyo.obj.cleaner.materialmerger.gles"
    },
    {
      "mesh": 0,
      "name": "Object_2"
    },
    {
      "mesh": 1,
      "name": "Object_3"
    },
    {
      "mesh": 2,
      "name": "Object_4"
    }
  ],
  "samplers": [
    {
      "magFilter": 9729,
      "minFilter": 9987,
      "wrapS": 10497,
      "wrapT": 10497
    }
  ],
  "scene": 0,
  "scenes": [
    {
      "name": "Sketchfab_Scene",
      "nodes": [
        0
      ]
    }
  ],
  "textures": [
    {
      "sampler": 0,
      "source": 0
    },
    {
      "sampler": 0,
      "source": 1
    }
  ]
}
