<svg xmlns="http://www.w3.org/2000/svg" xmlns:xlink="http://www.w3.org/1999/xlink" id="visual" width="900" height="600" version="1.1" viewBox="0 0 900 600"><rect width="900" height="600" x="0" y="0" fill="#140021"/><path fill="#90f" d="M396 0L415 0L415 60L336 60L336 120L564 120L564 180L419 180L419 240L467 240L467 300L547 300L547 360L548 360L548 420L481 420L481 480L343 480L343 540L507 540L507 600L0 600L0 540L0 540L0 480L0 480L0 420L0 420L0 360L0 360L0 300L0 300L0 240L0 240L0 180L0 180L0 120L0 120L0 60L0 60L0 0L0 0Z"/><path fill="#7700c6" d="M192 0L357 0L357 60L369 60L369 120L313 120L313 180L263 180L263 240L196 240L196 300L259 300L259 360L195 360L195 420L226 420L226 480L235 480L235 540L216 540L216 600L0 600L0 540L0 540L0 480L0 480L0 420L0 420L0 360L0 360L0 300L0 300L0 240L0 240L0 180L0 180L0 120L0 120L0 60L0 60L0 0L0 0Z"/><path fill="#560090" d="M237 0L222 0L222 60L167 60L167 120L177 120L177 180L181 180L181 240L190 240L190 300L75 300L75 360L54 360L54 420L136 420L136 480L158 480L158 540L80 540L80 600L0 600L0 540L0 540L0 480L0 480L0 420L0 420L0 360L0 360L0 300L0 300L0 240L0 240L0 180L0 180L0 120L0 120L0 60L0 60L0 0L0 0Z"/></svg>