<svg id="visual" viewBox="0 0 540 960" width="540" height="960" xmlns="http://www.w3.org/2000/svg" xmlns:xlink="http://www.w3.org/1999/xlink" version="1.1"><rect x="0" y="0" width="540" height="960" fill="#140021"></rect><path d="M238 0L249 0L249 96L202 96L202 192L339 192L339 288L252 288L252 384L281 384L281 480L329 480L329 576L329 576L329 672L289 672L289 768L206 768L206 864L305 864L305 960L0 960L0 864L0 864L0 768L0 768L0 672L0 672L0 576L0 576L0 480L0 480L0 384L0 384L0 288L0 288L0 192L0 192L0 96L0 96L0 0L0 0Z" fill="#9900ff"></path><path d="M116 0L215 0L215 96L222 96L222 192L188 192L188 288L158 288L158 384L118 384L118 480L156 480L156 576L118 576L118 672L136 672L136 768L142 768L142 864L130 864L130 960L0 960L0 864L0 864L0 768L0 768L0 672L0 672L0 576L0 576L0 480L0 480L0 384L0 384L0 288L0 288L0 192L0 192L0 96L0 96L0 0L0 0Z" fill="#7700c6"></path><path d="M142 0L133 0L133 96L101 96L101 192L107 192L107 288L109 288L109 384L114 384L114 480L45 480L45 576L33 576L33 672L82 672L82 768L95 768L95 864L48 864L48 960L0 960L0 864L0 864L0 768L0 768L0 672L0 672L0 576L0 576L0 480L0 480L0 384L0 384L0 288L0 288L0 192L0 192L0 96L0 96L0 0L0 0Z" fill="#560090"></path></svg>